HIERARCHY
ROOT mixamorig:Hips
{
	OFFSET 0.000000 104.274902 0.000000
	CHANNELS 6 Xposition Yposition Zposition Xrotation Yrotation Zrotation
	JOINT mixamorig:Spine
	{
		OFFSET 0.000000 10.181549 0.131524
		CHANNELS 6 Xposition Yposition Zposition Xrotation Yrotation Zrotation
		JOINT mixamorig:Spine1
		{
			OFFSET 0.000000 9.893990 -1.470706
			CHANNELS 3 Xrotation Yrotation Zrotation
			JOINT mixamorig:Spine2
			{
				OFFSET 0.000000 9.220787 -1.370637
				CHANNELS 3 Xrotation Yrotation Zrotation
				JOINT mixamorig:Neck
				{
					OFFSET 0.000000 16.740372 -2.049022
					CHANNELS 6 Xposition Yposition Zposition Xrotation Yrotation Zrotation
					JOINT mixamorig:Head
					{
						OFFSET 0.000000 9.617859 1.684976
						CHANNELS 6 Xposition Yposition Zposition Xrotation Yrotation Zrotation
						JOINT mixamorig:HeadTop_End
						{
							OFFSET 0.000000 22.037384 7.501072
							CHANNELS 6 Xposition Yposition Zposition Xrotation Yrotation Zrotation
							End Site
							{
								OFFSET 0.000000 23.106567 -2.828246
							}
						}
					}
				}
				JOINT mixamorig:RightShoulder
				{
					OFFSET -4.570000 11.014877 -2.160840
					CHANNELS 6 Xposition Yposition Zposition Xrotation Yrotation Zrotation
					JOINT mixamorig:RightArm
					{
						OFFSET -10.592867 -0.524796 -2.232105
						CHANNELS 3 Xrotation Yrotation Zrotation
						JOINT mixamorig:RightForeArm
						{
							OFFSET -27.841497 0.000000 -0.000002
							CHANNELS 3 Xrotation Yrotation Zrotation
							JOINT mixamorig:RightHand
							{
								OFFSET -28.328812 0.000000 -0.000001
								CHANNELS 3 Xrotation Yrotation Zrotation
								JOINT mixamorig:RightHandThumb1
								{
									OFFSET -2.464798 -1.573990 2.681911
									CHANNELS 6 Xposition Yposition Zposition Xrotation Yrotation Zrotation
									JOINT mixamorig:RightHandThumb2
									{
										OFFSET -3.244781 -1.873383 1.873376
										CHANNELS 3 Xrotation Yrotation Zrotation
										JOINT mixamorig:RightHandThumb3
										{
											OFFSET -2.646263 -1.527817 1.527818
											CHANNELS 6 Xposition Yposition Zposition Xrotation Yrotation Zrotation
											JOINT mixamorig:RightHandThumb4
											{
												OFFSET -1.994591 -1.151581 1.151575
												CHANNELS 6 Xposition Yposition Zposition Xrotation Yrotation Zrotation
												End Site
												{
													OFFSET -1.860176 -1.142715 1.365483
												}
											}
										}
									}
								}
								JOINT mixamorig:RightHandIndex1
								{
									OFFSET -9.108299 -0.517883 2.259803
									CHANNELS 6 Xposition Yposition Zposition Xrotation Yrotation Zrotation
									JOINT mixamorig:RightHandIndex2
									{
										OFFSET -3.699997 0.000000 0.000000
										CHANNELS 3 Xrotation Yrotation Zrotation
										JOINT mixamorig:RightHandIndex3
										{
											OFFSET -2.850006 0.000000 0.000000
											CHANNELS 3 Xrotation Yrotation Zrotation
											JOINT mixamorig:RightHandIndex4
											{
												OFFSET -2.772194 0.000000 0.000000
												CHANNELS 3 Xrotation Yrotation Zrotation
												End Site
												{
													OFFSET -2.772202 0.000000 -0.000484
												}
											}
										}
									}
								}
								JOINT mixamorig:RightHandMiddle1
								{
									OFFSET -9.532501 0.000000 -0.000000
									CHANNELS 6 Xposition Yposition Zposition Xrotation Yrotation Zrotation
									JOINT mixamorig:RightHandMiddle2
									{
										OFFSET -3.699997 0.000000 0.000000
										CHANNELS 3 Xrotation Yrotation Zrotation
										JOINT mixamorig:RightHandMiddle3
										{
											OFFSET -2.949997 0.000000 0.000000
											CHANNELS 3 Xrotation Yrotation Zrotation
											JOINT mixamorig:RightHandMiddle4
											{
												OFFSET -2.946594 0.000000 0.000000
												CHANNELS 3 Xrotation Yrotation Zrotation
												End Site
												{
													OFFSET -2.946602 0.000000 -0.000982
												}
											}
										}
									}
								}
								JOINT mixamorig:RightHandRing1
								{
									OFFSET -9.103600 -0.043106 -1.865100
									CHANNELS 6 Xposition Yposition Zposition Xrotation Yrotation Zrotation
									JOINT mixamorig:RightHandRing2
									{
										OFFSET -3.379303 0.000000 0.000000
										CHANNELS 3 Xrotation Yrotation Zrotation
										JOINT mixamorig:RightHandRing3
										{
											OFFSET -2.889694 0.000000 0.000000
											CHANNELS 3 Xrotation Yrotation Zrotation
											JOINT mixamorig:RightHandRing4
											{
												OFFSET -2.638802 0.000000 0.000000
												CHANNELS 3 Xrotation Yrotation Zrotation
												End Site
												{
													OFFSET -2.638802 0.000000 0.004218
												}
											}
										}
									}
								}
								JOINT mixamorig:RightHandPinky1
								{
									OFFSET -8.076698 -0.486725 -3.806299
									CHANNELS 6 Xposition Yposition Zposition Xrotation Yrotation Zrotation
									JOINT mixamorig:RightHandPinky2
									{
										OFFSET -3.600006 0.000000 0.000000
										CHANNELS 3 Xrotation Yrotation Zrotation
										JOINT mixamorig:RightHandPinky3
										{
											OFFSET -2.099998 0.000000 0.000000
											CHANNELS 3 Xrotation Yrotation Zrotation
											JOINT mixamorig:RightHandPinky4
											{
												OFFSET -2.115791 0.000000 0.000000
												CHANNELS 3 Xrotation Yrotation Zrotation
												End Site
												{
													OFFSET -2.115799 0.000000 0.000174
												}
											}
										}
									}
								}
							}
						}
					}
				}
				JOINT mixamorig:LeftShoulder
				{
					OFFSET 4.570400 11.014679 -2.160816
					CHANNELS 6 Xposition Yposition Zposition Xrotation Yrotation Zrotation
					JOINT mixamorig:LeftArm
					{
						OFFSET 10.592373 -0.524597 -2.232116
						CHANNELS 3 Xrotation Yrotation Zrotation
						JOINT mixamorig:LeftForeArm
						{
							OFFSET 27.841488 0.000000 0.000001
							CHANNELS 3 Xrotation Yrotation Zrotation
							JOINT mixamorig:LeftHand
							{
								OFFSET 28.328808 0.000000 -0.000000
								CHANNELS 3 Xrotation Yrotation Zrotation
								JOINT mixamorig:LeftHandThumb1
								{
									OFFSET 2.466103 -1.576202 2.681698
									CHANNELS 6 Xposition Yposition Zposition Xrotation Yrotation Zrotation
									JOINT mixamorig:LeftHandThumb2
									{
										OFFSET 3.243317 -1.872528 1.872530
										CHANNELS 3 Xrotation Yrotation Zrotation
										JOINT mixamorig:LeftHandThumb3
										{
											OFFSET 2.647881 -1.528763 1.528754
											CHANNELS 6 Xposition Yposition Zposition Xrotation Yrotation Zrotation
											JOINT mixamorig:LeftHandThumb4
											{
												OFFSET 1.998924 -1.154083 1.154080
												CHANNELS 6 Xposition Yposition Zposition Xrotation Yrotation Zrotation
												End Site
												{
													OFFSET 1.884041 -1.149155 1.337651
												}
											}
										}
									}
								}
								JOINT mixamorig:LeftHandIndex1
								{
									OFFSET 9.109299 -0.518005 2.259900
									CHANNELS 6 Xposition Yposition Zposition Xrotation Yrotation Zrotation
									JOINT mixamorig:LeftHandIndex2
									{
										OFFSET 3.699997 0.000000 0.000000
										CHANNELS 3 Xrotation Yrotation Zrotation
										JOINT mixamorig:LeftHandIndex3
										{
											OFFSET 2.850006 0.000000 0.000000
											CHANNELS 3 Xrotation Yrotation Zrotation
											JOINT mixamorig:LeftHandIndex4
											{
												OFFSET 2.774895 0.000000 0.000000
												CHANNELS 3 Xrotation Yrotation Zrotation
												End Site
												{
													OFFSET 2.774902 0.000000 -0.000072
												}
											}
										}
									}
								}
								JOINT mixamorig:LeftHandMiddle1
								{
									OFFSET 9.533401 0.000000 0.000000
									CHANNELS 6 Xposition Yposition Zposition Xrotation Yrotation Zrotation
									JOINT mixamorig:LeftHandMiddle2
									{
										OFFSET 3.699997 0.000000 0.000000
										CHANNELS 3 Xrotation Yrotation Zrotation
										JOINT mixamorig:LeftHandMiddle3
										{
											OFFSET 2.949997 0.000000 0.000000
											CHANNELS 3 Xrotation Yrotation Zrotation
											JOINT mixamorig:LeftHandMiddle4
											{
												OFFSET 2.952896 0.000000 0.000000
												CHANNELS 3 Xrotation Yrotation Zrotation
												End Site
												{
													OFFSET 2.952904 0.000000 0.000165
												}
											}
										}
									}
								}
								JOINT mixamorig:LeftHandRing1
								{
									OFFSET 9.104500 -0.042999 -1.865101
									CHANNELS 6 Xposition Yposition Zposition Xrotation Yrotation Zrotation
									JOINT mixamorig:LeftHandRing2
									{
										OFFSET 3.149994 0.000000 0.000000
										CHANNELS 3 Xrotation Yrotation Zrotation
										JOINT mixamorig:LeftHandRing3
										{
											OFFSET 2.950005 0.000000 0.000000
											CHANNELS 3 Xrotation Yrotation Zrotation
											JOINT mixamorig:LeftHandRing4
											{
												OFFSET 2.644302 0.000000 0.000000
												CHANNELS 3 Xrotation Yrotation Zrotation
												End Site
												{
													OFFSET 2.644302 0.000000 0.000083
												}
											}
										}
									}
								}
								JOINT mixamorig:LeftHandPinky1
								{
									OFFSET 8.077805 -0.486893 -3.806302
									CHANNELS 6 Xposition Yposition Zposition Xrotation Yrotation Zrotation
									JOINT mixamorig:LeftHandPinky2
									{
										OFFSET 3.600006 0.000000 0.000000
										CHANNELS 3 Xrotation Yrotation Zrotation
										JOINT mixamorig:LeftHandPinky3
										{
											OFFSET 2.099998 0.000000 0.000000
											CHANNELS 3 Xrotation Yrotation Zrotation
											JOINT mixamorig:LeftHandPinky4
											{
												OFFSET 2.125496 0.000000 0.000000
												CHANNELS 3 Xrotation Yrotation Zrotation
												End Site
												{
													OFFSET 2.125504 0.000000 -0.001254
												}
											}
										}
									}
								}
							}
						}
					}
				}
			}
		}
	}
	JOINT mixamorig:RightUpLeg
	{
		OFFSET -8.207800 -6.751701 -1.599544
		CHANNELS 6 Xposition Yposition Zposition Xrotation Yrotation Zrotation
		JOINT mixamorig:RightLeg
		{
			OFFSET 0.000004 -44.370152 0.345934
			CHANNELS 3 Xrotation Yrotation Zrotation
			JOINT mixamorig:RightFoot
			{
				OFFSET 0.000004 -44.423664 -3.043535
				CHANNELS 3 Xrotation Yrotation Zrotation
				JOINT mixamorig:RightToeBase
				{
					OFFSET 0.000001 -8.728691 10.710592
					CHANNELS 3 Xrotation Yrotation Zrotation
					JOINT mixamorig:RightToe_End
					{
						OFFSET 0.000000 -0.000665 9.278101
						CHANNELS 3 Xrotation Yrotation Zrotation
						End Site
						{
							OFFSET 0.000000 -0.000665 9.278103
						}
					}
				}
			}
		}
	}
	JOINT mixamorig:LeftUpLeg
	{
		OFFSET 8.207800 -6.751701 -1.599544
		CHANNELS 6 Xposition Yposition Zposition Xrotation Yrotation Zrotation
		JOINT mixamorig:LeftLeg
		{
			OFFSET 0.000004 -44.370037 0.346940
			CHANNELS 3 Xrotation Yrotation Zrotation
			JOINT mixamorig:LeftFoot
			{
				OFFSET 0.000004 -44.423611 -3.044388
				CHANNELS 3 Xrotation Yrotation Zrotation
				JOINT mixamorig:LeftToeBase
				{
					OFFSET 0.000001 -8.728690 10.710592
					CHANNELS 3 Xrotation Yrotation Zrotation
					JOINT mixamorig:LeftToe_End
					{
						OFFSET 0.000000 -0.000680 9.278101
						CHANNELS 3 Xrotation Yrotation Zrotation
						End Site
						{
							OFFSET 0.000000 -0.000680 9.278101
						}
					}
				}
			}
		}
	}
}
MOTION
Frames: 4
Frame Time: 0.033333
-1.869217 12.742462 1.595705 30.364098 8.841119 83.826242 -0.000000 10.181545 0.131523 12.407234 -19.030761 -16.517460 9.677350 -6.796472 4.649667 10.204277 -6.229951 4.381592 0.000002 16.740381 -2.049021 -7.404827 4.293733 12.088882 -0.000001 9.617853 1.684981 -22.624090 38.663672 9.327304 0.000001 22.037369 7.501070 -0.000000 0.000001 0.000000 -4.569999 11.014894 -2.160839 -15.637870 -19.113082 -25.276476 -81.245052 -0.691077 8.627968 0.000330 101.165620 -0.000284 13.484747 20.411575 -13.741670 -2.464806 -1.574001 2.681896 -7.624586 18.944576 -14.577201 26.742101 -28.013949 19.652102 -2.646271 -1.527813 1.527805 15.217096 -17.805050 4.173471 -1.994586 -1.151586 1.151574 0.000003 -0.000000 -0.000002 -9.108306 -0.517873 2.259793 -5.149122 11.922663 20.023154 1.688482 -3.589935 50.367413 0.000348 -0.056706 0.696210 0.000000 0.000001 -0.000005 -9.532506 0.000005 -0.000008 -2.129760 1.289464 25.484319 0.762824 -2.556051 33.229601 0.158028 1.204133 -14.952684 0.000001 -0.000000 0.000005 -9.103614 -0.043099 -1.865110 1.215147 -5.640882 27.815923 0.346142 -1.763561 22.207655 0.004240 0.198800 -2.441257 0.000001 -0.000000 -0.000000 -8.076698 -0.486709 -3.806308 2.833497 -9.578273 23.562648 0.538512 -2.175764 27.799717 0.001389 0.114271 -1.402874 -0.000000 -0.000001 0.000006 4.570400 11.014684 -2.160816 1.608793 -23.612538 -10.258730 -86.550846 -12.421193 -35.047545 0.000047 -111.737899 0.000029 28.622891 -22.888212 -2.151348 2.466098 -1.576195 2.681697 -23.028399 -5.465091 9.154663 2.048500 22.278870 6.414833 2.647882 -1.528765 1.528752 -5.705126 11.739888 35.448935 1.998917 -1.154101 1.154084 0.000000 0.000003 -0.000000 9.109301 -0.518009 2.259900 6.591733 -12.151764 -0.379125 0.232007 1.634036 -16.162946 0.198084 -1.511942 14.925331 -0.000000 0.000003 0.000000 9.533398 0.000007 0.000001 0.076238 2.739177 -3.699915 0.000001 0.000007 -0.000005 0.033549 -0.626689 6.127277 -0.000000 0.000000 0.000000 9.104496 -0.042995 -1.865097 -0.490748 11.568913 3.887694 0.065799 0.876598 -8.586714 0.176484 -1.428480 14.083641 -0.000001 0.000001 0.000000 8.077806 -0.486879 -3.806293 -3.614460 23.221687 11.161705 0.214465 1.572243 -15.535757 0.198080 -1.511928 14.925341 0.000001 -0.000000 0.000000 -8.207793 -6.751710 -1.599540 -52.228565 22.058224 22.036057 107.917925 -7.754835 3.663063 22.965954 16.209497 -2.036978 0.240898 0.000026 0.000003 -0.000000 0.000000 -0.000000 8.207798 -6.751703 -1.599547 -27.830777 20.631819 6.622361 47.187137 -4.597806 -10.213716 29.427645 19.822669 -2.108865 2.649835 -0.000014 -0.000005 0.000001 0.000000 -0.000000 
-1.922531 12.773384 1.566441 30.316327 8.805384 83.795076 -0.000001 10.181559 0.131528 12.543544 -19.061045 -16.448535 9.680063 -6.805935 4.649468 10.206828 -6.239306 4.381341 0.000007 16.740381 -2.049012 -7.467507 4.301544 12.047739 -0.000000 9.617829 1.684976 -22.626315 38.610544 9.400708 -0.000000 22.037384 7.501073 -0.000001 0.000000 0.000000 -4.570004 11.014880 -2.160836 -15.588855 -19.090247 -25.127872 -81.295063 -0.618884 8.540901 -2.028905 101.222563 1.951706 13.079947 20.365304 -13.729844 -2.464796 -1.573979 2.681909 -7.624570 18.944588 -14.577196 26.742101 -28.013973 19.652102 -2.646285 -1.527811 1.527816 15.217088 -17.805036 4.173467 -1.994593 -1.151602 1.151563 0.000002 -0.000000 -0.000002 -9.108306 -0.517886 2.259814 -5.149117 11.922665 20.023162 1.688468 -3.589929 50.367403 0.000341 -0.056718 0.696221 -0.000000 0.000001 -0.000002 -9.532504 0.000011 -0.000005 -2.129748 1.289448 25.484310 0.762822 -2.556029 33.229615 0.158022 1.204123 -14.952698 0.000000 -0.000000 0.000003 -9.103599 -0.043091 -1.865105 1.215150 -5.640880 27.815920 0.346158 -1.763579 22.207619 0.004228 0.198811 -2.441234 0.000001 0.000000 -0.000003 -8.076689 -0.486722 -3.806307 2.833499 -9.578283 23.562636 0.538507 -2.175770 27.799736 0.001399 0.114279 -1.402888 -0.000000 -0.000000 0.000003 4.570401 11.014686 -2.160810 1.629106 -23.616062 -10.183229 -86.592114 -12.362747 -35.035524 -0.001629 -111.764605 -0.001490 28.628417 -22.911045 -2.131503 2.466112 -1.576216 2.681699 -23.028411 -5.465096 9.154659 2.048477 22.278863 6.414839 2.647879 -1.528765 1.528754 -5.705096 11.739861 35.448791 1.998917 -1.154081 1.154084 0.000001 -0.000005 -0.000000 9.109302 -0.518006 2.259898 6.591732 -12.151776 -0.379078 0.232008 1.634033 -16.163059 0.198080 -1.511929 14.925360 0.000000 0.000000 -0.000000 9.533411 0.000006 0.000000 0.076234 2.739176 -3.699850 0.000000 0.000000 0.000000 0.033550 -0.626702 6.127266 -0.000000 -0.000000 -0.000001 9.104497 -0.043001 -1.865100 -0.490758 11.568892 3.887748 0.065802 0.876613 -8.586837 0.176481 -1.428505 14.083893 0.000002 0.000000 -0.000000 8.077804 -0.486875 -3.806298 -3.614493 23.221634 11.161794 0.214464 1.572263 -15.535856 0.198083 -1.511937 14.925338 0.000000 0.000001 0.000000 -8.207798 -6.751715 -1.599540 -52.170255 21.950469 21.944513 107.841338 -7.718944 3.651857 23.064717 16.210957 -2.123256 0.203374 0.000009 0.000005 -0.000000 -0.000000 -0.000000 8.207799 -6.751697 -1.599545 -27.793426 20.487673 6.593788 47.116048 -4.423354 -10.197301 29.599895 19.847249 -2.346095 2.625518 -0.000007 -0.000030 0.000001 0.000000 0.000000 
-1.970398 12.815842 1.535357 30.249521 8.787296 83.771478 -0.000002 10.181543 0.131520 12.646666 -19.088989 -16.393362 9.686485 -6.814432 4.641742 10.213681 -6.247291 4.373295 0.000003 16.740377 -2.049017 -7.586803 4.332921 11.958009 0.000005 9.617847 1.684983 -22.655678 38.507015 9.598655 -0.000001 22.037369 7.501076 0.000000 0.000000 0.000000 -4.570004 11.014877 -2.160840 -15.531667 -19.073167 -24.925911 -81.347007 -0.492706 8.472684 -4.144029 101.251824 4.012303 12.689995 20.339151 -13.723136 -2.464792 -1.573963 2.681910 -7.624581 18.944583 -14.577179 26.742091 -28.013951 19.652095 -2.646271 -1.527822 1.527811 15.217095 -17.805050 4.173461 -1.994571 -1.151586 1.151573 0.000003 0.000003 0.000001 -9.108292 -0.517886 2.259798 -5.149120 11.922671 20.023164 1.688473 -3.589936 50.367410 0.000347 -0.056718 0.696214 -0.000000 0.000001 -0.000002 -9.532495 0.000009 -0.000003 -2.129757 1.289460 25.484319 0.762821 -2.556035 33.229601 0.158023 1.204130 -14.952703 -0.000000 -0.000000 0.000002 -9.103597 -0.043079 -1.865105 1.215150 -5.640891 27.815927 0.346145 -1.763565 22.207643 0.004234 0.198808 -2.441248 0.000000 0.000000 0.000000 -8.076696 -0.486708 -3.806304 2.833495 -9.578282 23.562643 0.538508 -2.175783 27.799722 0.001396 0.114269 -1.402889 -0.000001 -0.000000 0.000004 4.570399 11.014695 -2.160812 1.672784 -23.702852 -10.051118 -86.628013 -12.292113 -34.986135 -0.003365 -111.770841 -0.002916 28.668766 -22.933304 -2.105865 2.466101 -1.576219 2.681703 -23.027815 -5.464912 9.153767 2.048481 22.278866 6.414839 2.647885 -1.528748 1.528753 -5.703066 11.741940 35.455112 1.998918 -1.154069 1.154086 -0.000002 -0.000000 -0.000004 9.109291 -0.518000 2.259898 6.591737 -12.151904 -0.377777 0.232167 1.634567 -16.168489 0.198082 -1.511932 14.925331 0.000000 0.000000 0.000001 9.533412 0.000011 0.000000 0.076231 2.739143 -3.699575 0.000004 0.000015 -0.000100 0.033546 -0.626655 6.126916 0.000000 0.000000 0.000000 9.104504 -0.043001 -1.865098 -0.491093 11.568708 3.889812 0.065892 0.877185 -8.592595 0.176864 -1.429998 14.098981 -0.000002 0.000001 0.000000 8.077803 -0.486897 -3.806308 -3.616403 23.220867 11.167149 0.214655 1.572939 -15.542811 0.198085 -1.511937 14.925340 0.000001 0.000000 0.000000 -8.207800 -6.751715 -1.599537 -52.113995 21.822424 21.813536 107.772749 -7.614151 3.648247 23.151302 16.213672 -2.293131 0.172310 0.000013 0.000010 0.000000 0.000001 -0.000000 8.207800 -6.751705 -1.599548 -27.753183 20.267844 6.526716 47.035032 -4.230666 -10.218938 29.742100 19.864290 -2.502053 2.611326 0.000001 0.000011 -0.000000 0.000000 -0.000001 
-2.019669 12.881432 1.497810 30.107966 8.752659 83.748125 0.000001 10.181550 0.131523 12.766596 -19.095484 -16.337990 9.712944 -6.813808 4.633716 10.240985 -6.246190 4.364189 0.000003 16.740356 -2.049022 -7.762353 4.367327 11.827195 0.000004 9.617853 1.684974 -22.604255 38.307830 9.837127 0.000001 22.037384 7.501069 -0.000001 0.000001 -0.000000 -4.570002 11.014879 -2.160842 -15.488169 -19.080540 -24.674057 -81.460572 -0.341010 8.379338 -6.360138 101.266352 6.283044 12.299955 20.326609 -13.719817 -2.464799 -1.573993 2.681913 -7.624579 18.944588 -14.577178 26.742088 -28.013951 19.652105 -2.646270 -1.527822 1.527822 15.217088 -17.805046 4.173460 -1.994575 -1.151584 1.151577 0.000001 -0.000000 -0.000000 -9.108299 -0.517869 2.259800 -5.149120 11.922672 20.023154 1.688484 -3.589939 50.367410 0.000344 -0.056715 0.696205 -0.000000 0.000001 -0.000002 -9.532498 0.000010 -0.000002 -2.129753 1.289459 25.484319 0.762821 -2.556047 33.229608 0.158029 1.204135 -14.952696 0.000000 -0.000000 0.000005 -9.103598 -0.043098 -1.865111 1.215151 -5.640886 27.815918 0.346143 -1.763564 22.207655 0.004234 0.198802 -2.441248 0.000001 0.000000 0.000002 -8.076697 -0.486714 -3.806309 2.833501 -9.578277 23.562652 0.538508 -2.175765 27.799715 0.001397 0.114275 -1.402871 -0.000001 -0.000001 0.000006 4.570400 11.014681 -2.160820 1.745959 -23.984144 -9.886185 -86.689772 -12.289112 -34.876845 0.001334 -111.690375 0.001288 28.744110 -23.006589 -2.083918 2.466105 -1.576199 2.681701 -23.027911 -5.464958 9.153900 2.048489 22.278875 6.414838 2.647883 -1.528758 1.528749 -5.703646 11.741580 35.454214 1.998925 -1.154080 1.154080 -0.000001 -0.000001 -0.000000 9.109306 -0.518009 2.259899 6.591727 -12.151871 -0.378248 0.232127 1.634433 -16.166964 0.198082 -1.511933 14.925346 -0.000000 -0.000001 -0.000001 9.533409 0.000008 -0.000001 0.076232 2.739173 -3.699795 -0.000005 0.000003 -0.000085 0.033551 -0.626665 6.126966 -0.000000 -0.000000 -0.000001 9.104507 -0.042989 -1.865102 -0.490985 11.568768 3.889143 0.065865 0.877033 -8.590936 0.176756 -1.429610 14.094912 0.000000 0.000001 0.000000 8.077810 -0.486873 -3.806304 -3.615875 23.221159 11.165647 0.214607 1.572762 -15.540919 0.198076 -1.511935 14.925338 -0.000000 0.000001 0.000000 -8.207799 -6.751708 -1.599538 -52.009732 21.638423 21.614265 107.707200 -7.469388 3.652905 23.225541 16.216981 -2.515165 0.135275 0.000011 -0.000011 0.000000 -0.000000 0.000000 8.207802 -6.751702 -1.599543 -27.695295 19.946372 6.412822 46.960221 -4.000441 -10.248471 29.888785 19.879761 -2.618542 2.599945 -0.000026 0.000017 0.000000 0.000000 -0.000001 
